#!OML:ASF F:\VICON\USERDATA\INSTALL\rory3\rory3.ASF
:FULLY-SPECIFIED
:DEGREES
1164
root -1.50084 8.19572 0.62177 -0.310993 0.00842134 -0.381863
lowerback 20.8698 0.454724 -0.550642
upperback 2.01695 0.739498 2.62649
thorax -9.53597 0.431708 2.98704
lowerneck -22.898 -1.07524 -9.20828
upperneck 27.8099 1.40896 1.88444
head 13.1047 -0.113911 2.53781
rclavicle 4.77083e-015 4.77083e-015
rhumerus -41.6032 -26.8496 -36.4524
rradius 37.3311
rwrist 5.81457
rhand -34.7204 1.37529
rfingers 7.12502
rthumb -7.87491 -28.458
lclavicle 4.77083e-015 4.77083e-015
lhumerus -42.6808 28.0903 49.2642
lradius 32.3966
lwrist 0.498189
lhand -21.4779 20.4885
lfingers 7.12502
lthumb 4.91295 50.4116
rfemur -72.3597 -69.6391 -1.21413
rtibia 150.648
rfoot -13.5586 43.0447
rtoes -11.9437
lfemur -69.2588 67.3841 4.65878
ltibia 148.406
lfoot -37.5998 -49.4372
ltoes -22.4624
1165
root -1.49398 8.10204 0.624757 -0.441494 -0.00766455 -0.400107
lowerback 20.9196 0.451294 -0.548911
upperback 2.093 0.737804 2.66279
thorax -9.4792 0.430365 3.02601
lowerneck -23.0044 -1.10832 -9.38666
upperneck 27.765 1.39103 2.04057
head 13.1062 -0.117543 2.6258
rclavicle -2.38542e-015 7.95139e-015
rhumerus -41.6104 -26.9208 -36.5082
rradius 37.3868
rwrist 5.90315
rhand -34.573 1.73186
rfingers 7.12502
rthumb -7.73269 -28.1068
lclavicle -2.38542e-015 7.95139e-015
lhumerus -42.6422 28.3104 49.3449
lradius 32.2492
lwrist 0.27714
lhand -21.5877 20.2013
lfingers 7.12502
lthumb 4.80686 50.1268
rfemur -72.5702 -70.9588 -1.86254
rtibia 151.339
rfoot -13.7143 43.2363
rtoes -12.7606
lfemur -69.0927 68.8472 5.59239
ltibia 149.143
lfoot -38.1691 -49.6346
ltoes -22.958
1166
root -1.48908 8.01223 0.627471 -0.605092 -0.0809468 -0.407363
lowerback 20.9019 0.501287 -0.596326
upperback 2.23412 0.793567 2.70641
thorax -9.31757 0.456666 3.08342
lowerneck -23.0361 -1.18138 -9.57051
upperneck 27.6001 1.31398 2.17347
head 13.0477 -0.14614 2.69184
rclavicle -1.19271e-015 1.74931e-014
rhumerus -41.5862 -27.2018 -36.5231
rradius 37.3923
rwrist 5.99614
rhand -34.7235 1.65083
rfingers 7.12502
rthumb -7.8779 -28.1824
lclavicle -1.19271e-015 1.74931e-014
lhumerus -42.4517 28.4263 49.5817
lradius 32.1613
lwrist 0.189262
lhand -21.6023 20.0568
lfingers 7.12502
lthumb 4.79276 49.9826
rfemur -72.6603 -72.1164 -2.61724
rtibia 151.998
rfoot -13.4837 43.5508
rtoes -12.6668
lfemur -68.2504 70.5291 7.18461
ltibia 149.828
lfoot -38.3244 -50.2258
ltoes -22.5152
1167
root -1.484 7.92805 0.628579 -0.80093 -0.143374 -0.534558
lowerback 20.9691 0.517066 -0.504918
upperback 2.35052 0.838281 2.7596
thorax -9.22749 0.473488 3.07577
lowerneck -23.0513 -1.21062 -9.60386
upperneck 27.4823 1.27851 2.18998
head 13.0047 -0.158589 2.69515
rclavicle 9.14409e-015 -2.06736e-014
rhumerus -41.5662 -27.4511 -36.5299
rradius 37.294
rwrist 6.07255
rhand -34.9821 1.35626
rfingers 7.12502
rthumb -8.12747 -28.4674
lclavicle 9.14409e-015 -2.06736e-014
lhumerus -42.2689 28.4435 49.8063
lradius 32.1342
lwrist 0.292676
lhand -21.6354 20.2492
lfingers 7.12502
lthumb 4.7608 50.1757
rfemur -72.4396 -73.2647 -3.4095
rtibia 152.593
rfoot -12.8216 43.9403
rtoes -11.6481
lfemur -67.721 71.968 8.68115
ltibia 150.478
lfoot -38.2446 -50.7845
ltoes -22.2497
